<svg width="57" height="40" viewBox="0 0 57 40" fill="none" xmlns="http://www.w3.org/2000/svg">
<path d="M16.6548 20.5168L8.78507 1.5H52C53.933 1.5 55.5 3.06701 55.5 5V13.3256C55.5 17.4677 52.1421 20.8256 48 20.8256H17.1168C16.9145 20.8256 16.7321 20.7037 16.6548 20.5168Z" stroke="#F2BC79" stroke-width="3"/>
<line y1="1.5" x2="9.34426" y2="1.5" stroke="#F2BC79" stroke-width="3"/>
<path d="M18.6885 20.4651V23.7674C18.6885 27.0812 21.3748 29.7674 24.6885 29.7674H53.2623" stroke="#F2BC79" stroke-width="3"/>
<path d="M31.2705 36.2791C31.2705 38.0022 29.671 39.5 27.5656 39.5C25.4602 39.5 23.8607 38.0022 23.8607 36.2791C23.8607 34.5559 25.4602 33.0581 27.5656 33.0581C29.671 33.0581 31.2705 34.5559 31.2705 36.2791Z" fill="#F2BC79" stroke="#F2BC79"/>
<path d="M49.0246 36.2791C49.0246 38.0022 47.4251 39.5 45.3197 39.5C43.2143 39.5 41.6147 38.0022 41.6147 36.2791C41.6147 34.5559 43.2143 33.0581 45.3197 33.0581C47.4251 33.0581 49.0246 34.5559 49.0246 36.2791Z" fill="#F2BC79" stroke="#F2BC79"/>
</svg>
